<?xml version="1.0" standalone="no"?><!DOCTYPE svg PUBLIC "-//W3C//DTD SVG 1.1//EN" "http://www.w3.org/Graphics/SVG/1.1/DTD/svg11.dtd"><svg class="icon" width="200px" height="200.00px" viewBox="0 0 1024 1024" version="1.1" xmlns="http://www.w3.org/2000/svg"><path fill="#000000" d="M512 853.333333c-187.733333 0-341.333333-153.6-341.333333-341.333333s153.6-341.333333 341.333333-341.333333 341.333333 153.6 341.333333 341.333333-153.6 341.333333-341.333333 341.333333z m0-85.333333c140.8 0 256-115.2 256-256s-115.2-256-256-256-256 115.2-256 256 115.2 256 256 256z m-85.333333-213.333333h170.666666v128h-170.666666v-128z m170.666666-128c0 46.933333-38.4 85.333333-85.333333 85.333333s-85.333333-38.4-85.333333-85.333333 38.4-85.333333 85.333333-85.333334 85.333333 38.4 85.333333 85.333334z"  /></svg>