<?xml version="1.0" standalone="no"?><!DOCTYPE svg PUBLIC "-//W3C//DTD SVG 1.1//EN" "http://www.w3.org/Graphics/SVG/1.1/DTD/svg11.dtd"><svg class="icon" width="200px" height="200.00px" viewBox="0 0 1024 1024" version="1.1" xmlns="http://www.w3.org/2000/svg"><path fill="#ff69b4" d="M512 170.666667c-186.453333 0-337.066667 150.613333-337.066667 337.066666s150.613334 337.066667 337.066667 337.066667 337.066667-150.613333 337.066667-337.066667-150.613334-337.066667-337.066667-337.066667z m0 622.933333c-158.613333 0-287.066667-128.453333-287.066667-287.066666s128.453334-287.066667 287.066667-287.066667 287.066667 128.453333 287.066667 287.066667-128.453334 287.066666-287.066667 287.066666z m0-469.333333c-102.4 0-187.066667 84.693333-187.066667 187.066666s84.693334 187.066667 187.066667 187.066667 187.066667-84.693333 187.066667-187.066667-84.693334-187.066666-187.066667-187.066666z"  /></svg>