<?xml version="1.0" standalone="no"?><!DOCTYPE svg PUBLIC "-//W3C//DTD SVG 1.1//EN" "http://www.w3.org/Graphics/SVG/1.1/DTD/svg11.dtd"><svg class="icon" width="200px" height="200.00px" viewBox="0 0 1024 1024" version="1.1" xmlns="http://www.w3.org/2000/svg"><path fill="#000000" d="M298.666667 298.666667v384h554.666666v85.333333H213.333333V337.066667L149.333333 273.066667 213.333333 213.333333l85.333334 85.333334z m256 42.666666h-128v213.333334h341.333333V341.333333h-128v85.333334h-85.333333V341.333333zM341.333333 256h512v384H341.333333V256zM298.666667 853.333333c-25.6 0-42.666667-17.066667-42.666667-42.666666s17.066667-42.666667 42.666667-42.666667 42.666667 17.066667 42.666666 42.666667-17.066667 42.666667-42.666666 42.666666z m469.333333 0c-25.6 0-42.666667-17.066667-42.666667-42.666666s17.066667-42.666667 42.666667-42.666667 42.666667 17.066667 42.666667 42.666667-17.066667 42.666667-42.666667 42.666666z"  /></svg>